<svg width="125" height="125" viewBox="0 0 125 125" fill="none" xmlns="http://www.w3.org/2000/svg">
<rect x="0.219238" y="0.209961" width="124.562" height="124.562" rx="10.9303" fill="#D5ECF6"/>
<path d="M33.1896 94.292L26.6704 21.1445H98.3289L91.801 94.2804L62.4561 102.416L33.1896 94.292Z" fill="#1572B6"/>
<path d="M62.5 96.1993L86.2139 89.625L91.7927 27.127H62.5V96.1993Z" fill="#33A9DC"/>
<path d="M62.5 53.6272H74.3715L75.19 44.4406H62.5V35.4688H84.9949L84.7801 37.875L82.577 62.599H62.5V53.6272V53.6272Z" fill="white"/>
<path d="M62.5549 76.9262L62.5143 76.9378L52.5236 74.2384L51.8851 67.0836H42.8784L44.1352 81.1698L62.5114 86.2725L62.5549 86.2609V76.9262V76.9262Z" fill="#EBEBEB"/>
<path d="M73.6078 62.2189L72.5281 74.2326L62.5229 76.932V86.2666L80.9136 81.1697L81.05 79.6546L82.6087 62.2189H73.6078V62.2189Z" fill="white"/>
<path d="M62.5317 35.4688V44.4406H40.8611L40.6812 42.4233L40.2719 37.875L40.0571 35.4688H62.5317V35.4688Z" fill="#EBEBEB"/>
<path d="M62.4999 53.6274V62.5993H52.6341L52.4542 60.582L52.0478 56.0337L51.833 53.6274H62.4999V53.6274Z" fill="#EBEBEB"/>
</svg>
