<svg width="125" height="125" viewBox="0 0 125 125" fill="none" xmlns="http://www.w3.org/2000/svg">
<rect width="124.562" height="124.562" rx="10.9303" fill="#D5ECF6"/>
<path d="M75.9371 75.3979C83.373 75.3979 89.401 69.3699 89.401 61.934C89.401 54.498 83.373 48.47 75.9371 48.47C68.5012 48.47 62.4731 54.498 62.4731 61.934C62.4731 69.3699 68.5012 75.3979 75.9371 75.3979Z" fill="#19BCFE"/>
<path fill-rule="evenodd" clip-rule="evenodd" d="M49.0089 102.326C52.5797 102.326 56.0043 100.907 58.5293 98.3823C61.0543 95.8574 62.4728 92.4328 62.4728 88.8619V75.3979H49.0089C45.438 75.3979 42.0134 76.8165 39.4884 79.3414C36.9634 81.8664 35.5449 85.291 35.5449 88.8619C35.5449 92.4328 36.9634 95.8574 39.4884 98.3823C42.0134 100.907 45.438 102.326 49.0089 102.326V102.326Z" fill="#09CF83"/>
<path fill-rule="evenodd" clip-rule="evenodd" d="M49.0089 75.3979H62.4728V48.47H49.0089C45.438 48.47 42.0134 49.8885 39.4884 52.4135C36.9634 54.9385 35.5449 58.3631 35.5449 61.934C35.5449 65.5048 36.9634 68.9294 39.4884 71.4544C42.0134 73.9794 45.438 75.3979 49.0089 75.3979V75.3979Z" fill="#A259FF"/>
<path fill-rule="evenodd" clip-rule="evenodd" d="M49.0089 48.4701H62.4728V21.5422H49.0089C45.438 21.5422 42.0134 22.9607 39.4884 25.4857C36.9634 28.0107 35.5449 31.4353 35.5449 35.0061C35.5449 38.577 36.9634 42.0016 39.4884 44.5266C42.0134 47.0515 45.438 48.4701 49.0089 48.4701V48.4701Z" fill="#F24E1E"/>
<path fill-rule="evenodd" clip-rule="evenodd" d="M75.9371 48.4701H62.4731V21.5422H75.9371C79.5079 21.5422 82.9326 22.9607 85.4575 25.4857C87.9825 28.0107 89.401 31.4353 89.401 35.0061C89.401 38.577 87.9825 42.0016 85.4575 44.5266C82.9326 47.0515 79.5079 48.4701 75.9371 48.4701Z" fill="#FF7262"/>
</svg>
