<svg width="86" height="87" viewBox="0 0 86 87" fill="none" xmlns="http://www.w3.org/2000/svg">
<circle cx="43" cy="43.3335" r="43" fill="#D5ECF6"/>
<path d="M43.1009 21.8335C37.372 21.8335 31.8777 24.1093 27.8267 28.1602C23.7758 32.2112 21.5 37.7055 21.5 43.4344C21.5 49.1633 23.7758 54.6575 27.8267 58.7085C31.8777 62.7594 37.372 65.0352 43.1009 65.0352C48.8298 65.0352 54.324 62.7594 58.375 58.7085C62.4259 54.6575 64.7017 49.1633 64.7017 43.4344C64.7017 37.7055 62.4259 32.2112 58.375 28.1602C54.324 24.1093 48.8298 21.8335 43.1009 21.8335V21.8335ZM48.7945 61.0445H48.6271C48.5013 61.0516 48.3755 61.0329 48.2572 60.9895C48.139 60.9462 48.0308 60.8791 47.9395 60.7925C47.855 60.7032 47.7892 60.598 47.746 60.483C47.7027 60.3681 47.6828 60.2456 47.6874 60.1228V57.5919C47.6982 56.7513 47.7054 55.8999 47.7054 55.043C47.7025 54.4165 47.611 53.7935 47.4336 53.1926C47.2656 52.5851 46.927 52.0385 46.458 51.6175C47.7126 51.4964 48.946 51.2113 50.1265 50.7697C51.1224 50.391 52.0231 49.7986 52.7655 49.0344C53.4981 48.2658 54.0435 47.3369 54.3585 46.3235C54.7417 45.0824 54.924 43.788 54.8985 42.4893C54.9056 41.5826 54.7469 40.6822 54.4305 39.8324C54.109 38.9759 53.6228 38.1907 52.9995 37.5211C53.134 37.1834 53.2318 36.8322 53.2911 36.4735C53.3505 36.1135 53.3811 35.7499 53.3811 35.3862C53.3811 34.9182 53.3271 34.4502 53.2191 33.9948C53.121 33.5277 52.988 33.0686 52.8213 32.6213C52.7576 32.5965 52.6898 32.5843 52.6214 32.5853H52.4234C52.0094 32.5889 51.6026 32.6573 51.2102 32.7851C50.7779 32.9113 50.3551 33.0677 49.9447 33.2532C49.5367 33.4361 49.1394 33.6422 48.7549 33.8706C48.3679 34.0992 48.0259 34.3188 47.7234 34.5222C44.6952 33.6782 41.4939 33.6782 38.4657 34.5222C38.128 34.2964 37.7846 34.0792 37.436 33.8706C37.0461 33.6403 36.6421 33.4347 36.2264 33.255C35.8172 33.0633 35.3927 32.9062 34.9573 32.7851C34.5727 32.6581 34.1708 32.5907 33.7657 32.5853H33.5677C33.5 32.5844 33.4327 32.5966 33.3697 32.6213C33.2006 33.0692 33.0623 33.5281 32.9557 33.9948C32.8585 34.452 32.8117 34.9182 32.8099 35.3862C32.8099 35.7499 32.8405 36.1135 32.9017 36.4735C32.9611 36.8317 33.0565 37.1827 33.1897 37.5211C32.5679 38.1916 32.0836 38.9775 31.764 39.8342C31.4459 40.6837 31.2855 41.5841 31.2906 42.4911C31.2654 43.7828 31.4428 45.0705 31.8162 46.3073C32.142 47.3207 32.6856 48.2514 33.4075 49.0362C34.1545 49.7958 35.0545 50.3862 36.0464 50.7715C37.2218 51.2215 38.4531 51.5095 39.7059 51.6283C39.3561 51.9453 39.0786 52.3339 38.8923 52.7677C38.715 53.1968 38.594 53.6469 38.5323 54.107C37.8718 54.4232 37.1495 54.5892 36.4172 54.593C35.7371 54.6202 35.066 54.4312 34.5001 54.053C33.9573 53.6507 33.4976 53.147 33.1465 52.5697C32.9893 52.3273 32.8136 52.0974 32.6208 51.8821C32.4175 51.6557 32.1933 51.449 31.9512 51.2647C31.7126 51.0864 31.451 50.9411 31.1736 50.8327C30.9006 50.713 30.6058 50.6511 30.3078 50.6509C30.2358 50.6527 30.1637 50.6598 30.0917 50.6688C29.9934 50.6685 29.8954 50.6806 29.8001 50.7049C29.7164 50.7268 29.6371 50.7633 29.5661 50.8129C29.5338 50.8307 29.5068 50.8567 29.4879 50.8883C29.4689 50.9199 29.4586 50.956 29.4581 50.9929C29.4657 51.0795 29.4922 51.1634 29.5357 51.2387C29.5793 51.3139 29.6388 51.3787 29.7101 51.4285C29.8775 51.5617 30.0161 51.6643 30.1277 51.7363L30.1817 51.7741C30.4212 51.9595 30.6516 52.1593 30.8694 52.3735C31.071 52.5499 31.2528 52.7497 31.4094 52.9675C31.5714 53.1818 31.7118 53.4104 31.8252 53.6534C31.9566 53.8946 32.0952 54.1718 32.241 54.4868C32.5794 55.34 33.1807 56.0619 33.9583 56.5479C34.7737 56.9853 35.6882 57.2031 36.6152 57.1797C36.9284 57.1797 37.2434 57.1617 37.5548 57.1257C37.8645 57.0753 38.1723 57.0231 38.4819 56.9619V60.0994C38.4875 60.2259 38.4663 60.3522 38.4198 60.47C38.3733 60.5877 38.3024 60.6944 38.2119 60.7829C38.1213 60.8714 38.0131 60.9398 37.8943 60.9836C37.7755 61.0275 37.6488 61.0457 37.5224 61.0373H37.4108C33.2131 59.6812 29.6375 56.871 27.3279 53.1126C25.0182 49.3543 24.1262 44.8949 24.8126 40.5373C25.499 36.1797 27.7187 32.2104 31.0718 29.344C34.425 26.4777 38.6914 24.9027 43.1027 24.9027C47.514 24.9027 51.7803 26.4777 55.1335 29.344C58.4867 32.2104 60.7063 36.1797 61.3927 40.5373C62.0791 44.8949 61.1871 49.3543 58.8775 53.1126C56.5678 56.871 52.9922 59.6812 48.7945 61.0373V61.0463V61.0445Z" fill="black"/>
</svg>
