<svg width="86" height="87" viewBox="0 0 86 87" fill="none" xmlns="http://www.w3.org/2000/svg">
<circle cx="43" cy="43.6665" r="43" fill="#D5ECF6"/>
<path d="M61.2294 22.1665H24.9723C23.0553 22.1665 21.5 23.7218 21.5 25.6388V61.8959C21.5 63.813 23.0553 65.3682 24.9723 65.3682H61.2294C63.1465 65.3682 64.7017 63.813 64.7017 61.8959V25.6388C64.7017 23.7218 63.1465 22.1665 61.2294 22.1665ZM61.2294 61.9121C37.0472 61.9067 24.9561 61.9013 24.9561 61.8959C24.9615 37.7137 24.9669 25.6226 24.9723 25.6226C49.1545 25.628 61.2456 25.6334 61.2456 25.6388C61.2402 49.821 61.2348 61.9121 61.2294 61.9121ZM27.9047 38.3618H34.3147V58.9798H27.9047V38.3618ZM31.1124 35.5428C33.1591 35.5428 34.8277 33.8796 34.8277 31.8275C34.8277 31.3396 34.7316 30.8565 34.5449 30.4057C34.3582 29.9549 34.0845 29.5453 33.7395 29.2003C33.3945 28.8553 32.985 28.5817 32.5342 28.395C32.0834 28.2082 31.6003 28.1121 31.1124 28.1121C30.6245 28.1121 30.1413 28.2082 29.6906 28.395C29.2398 28.5817 28.8302 28.8553 28.4852 29.2003C28.1402 29.5453 27.8666 29.9549 27.6799 30.4057C27.4931 30.8565 27.397 31.3396 27.397 31.8275C27.3916 33.8796 29.0549 35.5428 31.1124 35.5428ZM44.7371 48.7788C44.7371 46.0895 45.2502 43.4866 48.5821 43.4866C51.8654 43.4866 51.914 46.5593 51.914 48.9516V58.9798H58.3187V47.6717C58.3187 42.1203 57.1198 37.8487 50.6342 37.8487C47.5182 37.8487 45.4284 39.5606 44.5697 41.1807H44.4833V38.3618H38.3325V58.9798H44.7371V48.7788Z" fill="black"/>
</svg>
