<svg width="125" height="125" viewBox="0 0 125 125" fill="none" xmlns="http://www.w3.org/2000/svg">
<rect x="0.438232" y="0.105103" width="124.562" height="124.562" rx="10.9303" fill="#D5ECF6"/>
<path d="M87.4937 102.813H39.0099C34.7237 102.813 30.613 101.111 27.5822 98.0799C24.5513 95.0491 22.8486 90.9384 22.8486 86.6522V38.1684C22.8486 33.8821 24.5513 29.7714 27.5822 26.7406C30.613 23.7098 34.7237 22.0071 39.0099 22.0071H87.4937C91.78 22.0071 95.8907 23.7098 98.9215 26.7406C101.952 29.7714 103.655 33.8821 103.655 38.1684V86.6522C103.655 90.9384 101.952 95.0491 98.9215 98.0799C95.8907 101.111 91.78 102.813 87.4937 102.813ZM39.0099 30.0877C36.8668 30.0877 34.8114 30.9391 33.296 32.4545C31.7806 33.9699 30.9293 36.0252 30.9293 38.1684V86.6522C30.9293 88.7953 31.7806 90.8506 33.296 92.3661C34.8114 93.8815 36.8668 94.7328 39.0099 94.7328H87.4937C89.6369 94.7328 91.6922 93.8815 93.2076 92.3661C94.723 90.8506 95.5744 88.7953 95.5744 86.6522V38.1684C95.5744 36.0252 94.723 33.9699 93.2076 32.4545C91.6922 30.9391 89.6369 30.0877 87.4937 30.0877H39.0099ZM78.4515 81.7068C76.7043 81.7772 74.961 81.4911 73.328 80.866C71.6949 80.2408 70.2063 79.2897 68.9527 78.0705C66.3281 75.0784 64.9819 71.1761 65.2033 67.2021C65.122 63.3397 66.4998 59.5887 69.0618 56.6973C70.4012 55.2813 72.0248 54.1645 73.8261 53.4201C75.6275 52.6757 77.5659 52.3207 79.5141 52.3782H80.4555V44.2975C80.4555 43.6672 80.9686 43.1541 81.5989 43.1501H86.92C87.2154 43.139 87.504 43.2401 87.7281 43.4329C87.8374 43.5364 87.9235 43.662 87.9806 43.8013C88.0377 43.9406 88.0646 44.0905 88.0594 44.241V75.2666C88.0392 76.3372 88.0957 77.4079 88.221 78.4705V78.5715C88.2272 78.8285 88.1476 79.0801 87.9947 79.2867C87.8628 79.4488 87.6956 79.5787 87.5059 79.6665C84.7018 81.0049 81.6353 81.7032 78.5283 81.7109L78.4515 81.7068ZM74.7506 61.0366L74.7304 61.0608C73.4507 62.745 72.8068 64.8269 72.9122 66.9395C72.7463 69.1407 73.382 71.3276 74.7021 73.0969C75.7808 74.2848 77.3364 74.9312 78.9404 74.8504C79.4495 74.8585 79.9585 74.806 80.4555 74.6969V59.1457C80.0784 59.065 79.6937 59.0257 79.308 59.0285C78.446 59.0054 77.5897 59.1747 76.8013 59.5242C76.0129 59.8736 75.3123 60.3944 74.7506 61.0487V61.0366ZM64.1609 81.2382H58.2984C57.997 81.2579 57.6971 81.1827 57.4406 81.0233C57.1841 80.8639 56.9839 80.6282 56.8681 80.3493L56.0196 78.5715L55.9994 78.5271L55.1712 76.8746L54.9126 76.3372C53.6237 73.6787 52.2945 70.9394 50.9612 68.1192C49.1073 72.2266 47.1988 76.309 45.236 80.3654V80.4059L45.2158 80.4422C45.0806 80.6688 44.892 80.8589 44.6664 80.9957C44.437 81.1327 44.1739 81.2027 43.9068 81.1978H38.3675C38.1358 81.2091 37.9068 81.1447 37.715 81.0142C37.5233 80.8837 37.3793 80.6942 37.3049 80.4745C37.2562 80.3072 37.2466 80.131 37.2767 79.9594C37.3068 79.7878 37.3759 79.6254 37.4786 79.4847L46.4845 62.2689L37.7736 44.8389C37.6564 44.6694 37.5896 44.4701 37.5811 44.2641C37.5725 44.0582 37.6224 43.854 37.7251 43.6753C37.8238 43.5132 37.9627 43.3793 38.1283 43.2866C38.294 43.1939 38.4807 43.1454 38.6705 43.146H44.4643C44.7458 43.131 45.0258 43.1954 45.2724 43.3319C45.5229 43.4854 45.7168 43.7157 45.8219 43.9905C47.9875 48.5358 49.8137 52.4751 51.4096 55.97C53.3934 51.5257 55.5025 47.0086 56.9166 44.0147L56.9368 43.9703L56.961 43.9298V43.8854C57.0623 43.7126 57.189 43.556 57.3368 43.4208C57.5868 43.2121 57.9042 43.1015 58.2297 43.1097H63.6559C63.8633 43.1041 64.068 43.1588 64.2451 43.2671C64.4222 43.3753 64.5641 43.5326 64.6538 43.7198C64.7252 43.8912 64.754 44.0774 64.7378 44.2625C64.7216 44.4475 64.6609 44.6259 64.5609 44.7824L55.8459 61.6992L65.0659 79.4766C65.1629 79.631 65.2238 79.8052 65.2441 79.9864C65.2644 80.1676 65.2435 80.351 65.1831 80.523C65.1069 80.7322 64.9677 80.9126 64.7846 81.0393C64.6015 81.166 64.3835 81.2326 64.1609 81.2301V81.2382Z" fill="#560064"/>
</svg>
