<svg width="125" height="125" viewBox="0 0 125 125" fill="none" xmlns="http://www.w3.org/2000/svg">
<rect y="0.209961" width="124.562" height="124.562" rx="10.9303" fill="#D5ECF6"/>
<path d="M21.8604 91.4629C21.8604 97.2506 26.5519 101.941 32.339 101.941H92.6478C98.4359 101.941 103.127 97.2499 103.127 91.4629V31.154C103.127 25.366 98.4352 20.675 92.6482 20.675H32.3393C26.5513 20.675 21.8604 25.3666 21.8604 31.1537V91.4625V91.4629Z" fill="#563D7C"/>
<path d="M53.3635 56.6222V45.1138H63.4935C64.4586 45.1138 65.3887 45.1941 66.2845 45.355C67.1804 45.5156 67.973 45.8026 68.6622 46.2163C69.3511 46.6299 69.9025 47.2041 70.3161 47.939C70.7294 48.6742 70.9364 49.6161 70.9364 50.7643C70.9364 52.8318 70.3161 54.3251 69.0755 55.2438C67.8353 56.1628 66.2502 56.6222 64.3205 56.6222H53.3635V56.6222ZM42.5439 36.7062V85.9105H66.388C68.5933 85.9105 70.7412 85.6349 72.8316 85.0835C74.9219 84.5321 76.7825 83.6823 78.4135 82.5338C80.0443 81.3852 81.3423 79.9034 82.307 78.0889C83.2721 76.274 83.7543 74.1262 83.7543 71.6453C83.7543 68.5671 83.0076 65.937 81.5147 63.7549C80.0214 61.5724 77.7587 60.0449 74.7264 59.1719C76.9317 58.1154 78.5973 56.7599 79.723 55.106C80.8484 53.4521 81.4112 51.3849 81.4112 48.9038C81.4112 46.6067 81.0322 44.6773 80.2741 43.1151C79.516 41.5533 78.4478 40.3013 77.0695 39.3594C75.6914 38.4175 74.0375 37.7398 72.1078 37.3265C70.1783 36.9128 68.0419 36.7062 65.6988 36.7062H42.5439V36.7062ZM53.3635 77.5029V63.9958H65.1474C67.4905 63.9958 69.3742 64.5355 70.7986 65.6154C72.2227 66.6951 72.935 68.4982 72.935 71.025C72.935 72.3117 72.7166 73.3681 72.2802 74.1951C71.8437 75.022 71.258 75.6769 70.5228 76.1591C69.7879 76.6416 68.9378 76.9861 67.973 77.193C67.008 77.3994 65.9976 77.5029 64.9408 77.5029H53.3635V77.5029Z" fill="white"/>
</svg>
