<svg width="86" height="86" viewBox="0 0 86 86" fill="none" xmlns="http://www.w3.org/2000/svg">
<circle cx="43" cy="43" r="43" fill="#D5ECF6"/>
<path d="M64.231 24.3667H20.3351C19.5036 24.3667 18.7061 24.697 18.118 25.285C17.53 25.873 17.1997 26.6706 17.1997 27.5021V58.8563C17.1997 59.6878 17.53 60.4854 18.118 61.0734C18.7061 61.6614 19.5036 61.9917 20.3351 61.9917H64.231C65.0625 61.9917 65.86 61.6614 66.448 61.0734C67.036 60.4854 67.3664 59.6878 67.3664 58.8563V27.5021C67.3664 26.6706 67.036 25.873 66.448 25.285C65.86 24.697 65.0625 24.3667 64.231 24.3667ZM61.8167 58.8563H22.9375L33.9115 47.5061L31.654 45.327L20.3351 57.0377V29.885L39.8217 49.2776C40.4092 49.8616 41.2039 50.1893 42.0322 50.1893C42.8605 50.1893 43.6552 49.8616 44.2427 49.2776L64.231 29.399V56.8339L52.6926 45.2956L50.4822 47.5061L61.8167 58.8563ZM22.3888 27.5021H61.6913L42.0322 47.0514L22.3888 27.5021Z" fill="black"/>
</svg>
