<svg width="125" height="125" viewBox="0 0 125 125" fill="none" xmlns="http://www.w3.org/2000/svg">
<rect x="0.219238" y="0.105103" width="124.562" height="124.562" rx="10.9303" fill="#D5ECF6"/>
<path d="M33.532 85.7062L34.0226 85.0222L57.1689 41.1135L57.218 40.6488L47.0157 21.4853C46.8289 21.1349 46.5367 20.852 46.1804 20.6768C45.824 20.5016 45.4216 20.4429 45.03 20.5089C44.6384 20.575 44.2775 20.7625 43.9984 21.0449C43.7193 21.3274 43.536 21.6904 43.4745 22.0827L33.532 85.7062Z" fill="#FFC24A"/>
<path d="M33.8203 85.1867L34.1897 84.4652L57.0965 41.0125L46.9202 21.7739C46.7524 21.4393 46.4807 21.1681 46.1458 21.0009C45.8109 20.8338 45.4308 20.7796 45.0626 20.8465C44.6943 20.9135 44.3577 21.098 44.1031 21.3723C43.8484 21.6467 43.6896 21.9962 43.6503 22.3684L33.8203 85.1867Z" fill="#FFA712"/>
<path d="M64.6553 55.1427L72.2514 47.3503L64.6524 32.8594C64.4851 32.5475 64.2364 32.2868 63.9328 32.1051C63.6291 31.9234 63.2818 31.8274 62.928 31.8274C62.5741 31.8274 62.2268 31.9234 61.9231 32.1051C61.6195 32.2868 61.3708 32.5475 61.2035 32.8594L57.1428 40.5998V41.2607L64.6553 55.1427Z" fill="#F4BD62"/>
<path d="M64.5198 54.8253L71.9052 47.2638L64.5198 33.1798C64.3989 32.8749 64.1924 32.6115 63.9252 32.4214C63.658 32.2312 63.3415 32.1224 63.0139 32.1081C62.6863 32.0937 62.3615 32.1745 62.0787 32.3406C61.7959 32.5067 61.5672 32.751 61.4201 33.0441L57.3392 40.9202L57.218 41.3214L64.5198 54.8253Z" fill="#FFA50E"/>
<path d="M33.5376 85.709L33.7598 85.4839L34.565 85.1578L64.1762 55.6563L64.5513 54.6347L57.1659 40.5564L33.5376 85.709V85.709Z" fill="#F6820C"/>
<path d="M65.602 100.587L92.4079 85.6398L84.7482 38.5074C84.6933 38.1751 84.5479 37.8644 84.328 37.6094C84.1081 37.3543 83.8222 37.1648 83.5016 37.0616C83.181 36.9585 82.8382 36.9456 82.5108 37.0245C82.1834 37.1034 81.8841 37.2709 81.6457 37.5088L33.532 85.7062L60.1791 100.584C61.0075 101.046 61.9404 101.289 62.8891 101.289C63.8378 101.289 64.7707 101.046 65.5991 100.584" fill="#FDE068"/>
<path d="M92.1623 85.5157L84.5661 38.7382C84.5527 38.4204 84.4453 38.1138 84.2576 37.857C84.0698 37.6003 83.8101 37.405 83.5113 37.296C83.2125 37.1869 82.888 37.1689 82.579 37.2443C82.27 37.3197 81.9903 37.485 81.7753 37.7195L33.8203 85.6167L60.1731 100.336C60.9949 100.794 61.9203 101.035 62.8614 101.035C63.8025 101.035 64.728 100.794 65.5498 100.336L92.1623 85.5157Z" fill="#FCCA3F"/>
<path d="M65.602 100.137C64.7736 100.599 63.8407 100.842 62.892 100.842C61.9433 100.842 61.0104 100.599 60.182 100.137L33.7513 85.4813L33.532 85.7064L60.1791 100.584C61.0075 101.046 61.9404 101.289 62.8891 101.289C63.8378 101.289 64.7707 101.046 65.5991 100.584L92.4079 85.64L92.3415 85.236L65.602 100.137Z" fill="#EEAB37"/>
</svg>
