<svg width="125" height="125" viewBox="0 0 125 125" fill="none" xmlns="http://www.w3.org/2000/svg">
<circle cx="62.5" cy="62.5" r="62.5" fill="#2890BD"/>
<path d="M62.6466 31.25C54.3197 31.25 46.3339 34.5578 40.4459 40.4459C34.5578 46.3339 31.25 54.3197 31.25 62.6466C31.25 70.9735 34.5578 78.9594 40.4459 84.8474C46.3339 90.7354 54.3197 94.0432 62.6466 94.0432C70.9735 94.0432 78.9594 90.7354 84.8474 84.8474C90.7354 78.9594 94.0432 70.9735 94.0432 62.6466C94.0432 54.3197 90.7354 46.3339 84.8474 40.4459C78.9594 34.5578 70.9735 31.25 62.6466 31.25V31.25ZM70.9222 88.2427H70.6789C70.4961 88.253 70.3132 88.2258 70.1413 88.1629C69.9694 88.0999 69.8123 88.0024 69.6794 87.8764C69.5567 87.7467 69.4611 87.5938 69.3982 87.4267C69.3353 87.2595 69.3064 87.0815 69.3132 86.9031V83.2245C69.3288 82.0026 69.3393 80.7651 69.3393 79.5197C69.335 78.609 69.202 77.7035 68.9442 76.83C68.7 75.9471 68.2079 75.1526 67.5262 74.5407C69.3498 74.3646 71.1424 73.9503 72.8584 73.3084C74.3058 72.7579 75.615 71.897 76.694 70.7862C77.7588 69.669 78.5516 68.3189 79.0095 66.8459C79.5664 65.042 79.8314 63.1606 79.7944 61.273C79.8046 59.9551 79.574 58.6463 79.1141 57.4112C78.6468 56.1663 77.9401 55.025 77.0341 54.0518C77.2297 53.5609 77.3718 53.0504 77.458 52.5291C77.5443 52.0058 77.5888 51.4773 77.5888 50.9488C77.5888 50.2685 77.5103 49.5882 77.3533 48.9263C77.2107 48.2473 77.0174 47.58 76.7751 46.93C76.6826 46.8939 76.5839 46.8761 76.4847 46.8777H76.1969C75.5951 46.8829 75.0038 46.9823 74.4334 47.1681C73.8051 47.3515 73.1905 47.5788 72.5941 47.8483C72.0009 48.1142 71.4235 48.4138 70.8647 48.7458C70.3021 49.078 69.805 49.3972 69.3655 49.6929C64.964 48.4661 60.3109 48.4661 55.9094 49.6929C55.4186 49.3647 54.9195 49.0489 54.4128 48.7458C53.846 48.4111 53.2588 48.1122 52.6546 47.851C52.0598 47.5725 51.4428 47.344 50.8101 47.1681C50.251 46.9834 49.6668 46.8854 49.078 46.8777H48.7902C48.6918 46.8763 48.5941 46.894 48.5024 46.93C48.2567 47.581 48.0556 48.2479 47.9007 48.9263C47.7594 49.5909 47.6914 50.2685 47.6887 50.9488C47.6887 51.4773 47.7332 52.0058 47.8222 52.5291C47.9085 53.0497 48.0472 53.5599 48.2408 54.0518C47.3371 55.0263 46.6331 56.1685 46.1686 57.4138C45.7063 58.6485 45.4731 59.9572 45.4805 61.2756C45.4439 63.1531 45.7017 65.0247 46.2445 66.8224C46.7181 68.2954 47.5082 69.648 48.5574 70.7888C49.6432 71.8929 50.9514 72.7511 52.393 73.311C54.1015 73.9651 55.8911 74.3837 57.7121 74.5564C57.2037 75.0172 56.8003 75.5821 56.5295 76.2126C56.2719 76.8361 56.096 77.4904 56.0062 78.1591C55.0462 78.6188 53.9963 78.86 52.932 78.8656C51.9435 78.9051 50.968 78.6303 50.1455 78.0807C49.3565 77.4959 48.6884 76.7638 48.178 75.9248C47.9496 75.5723 47.6942 75.2382 47.414 74.9253C47.1185 74.5963 46.7926 74.2958 46.4407 74.0279C46.0939 73.7687 45.7137 73.5575 45.3104 73.3999C44.9137 73.226 44.4852 73.136 44.052 73.1357C43.9473 73.1383 43.8427 73.1488 43.738 73.1618C43.5951 73.1614 43.4527 73.179 43.3141 73.2142C43.1924 73.246 43.0773 73.2992 42.974 73.3712C42.9271 73.397 42.8878 73.4349 42.8603 73.4808C42.8327 73.5268 42.8178 73.5792 42.817 73.6328C42.828 73.7587 42.8665 73.8807 42.9298 73.9901C42.9931 74.0995 43.0796 74.1937 43.1833 74.266C43.4267 74.4596 43.6281 74.6087 43.7903 74.7134L43.8688 74.7683C44.2168 75.0378 44.5517 75.3282 44.8683 75.6396C45.1613 75.896 45.4256 76.1864 45.6532 76.503C45.8887 76.8143 46.0927 77.1466 46.2576 77.4998C46.4486 77.8504 46.65 78.2533 46.862 78.7112C47.3538 79.9514 48.2277 81.0005 49.358 81.707C50.5432 82.3427 51.8723 82.6593 53.2198 82.6253C53.675 82.6253 54.1329 82.5992 54.5855 82.5468C55.0355 82.4736 55.4829 82.3977 55.933 82.3087V86.8691C55.9411 87.053 55.9104 87.2365 55.8427 87.4077C55.7751 87.5788 55.6721 87.7338 55.5405 87.8625C55.4089 87.9911 55.2516 88.0906 55.0789 88.1543C54.9062 88.218 54.7221 88.2445 54.5384 88.2322H54.3762C48.2749 86.2612 43.0778 82.1766 39.7207 76.7139C36.3636 71.2512 35.0672 64.7694 36.0649 58.4357C37.0625 52.1021 40.2888 46.3327 45.1625 42.1665C50.0363 38.0003 56.2374 35.7111 62.6492 35.7111C69.061 35.7111 75.2621 38.0003 80.1359 42.1665C85.0097 46.3327 88.2359 52.1021 89.2336 58.4357C90.2312 64.7694 88.9348 71.2512 85.5777 76.7139C82.2206 82.1766 77.0235 86.2612 70.9222 88.2322V88.2453V88.2427Z" fill="white"/>
</svg>
