<svg width="143" height="143" viewBox="0 0 143 143" fill="none" xmlns="http://www.w3.org/2000/svg">
<circle cx="71.4" cy="71.4" r="71.4" fill="#2890BD"/>
<path d="M106.654 40.46H33.7663C32.3855 40.46 31.0613 41.0085 30.0849 41.9848C29.1086 42.9612 28.5601 44.2854 28.5601 45.6662V97.7287C28.5601 99.1095 29.1086 100.434 30.0849 101.41C31.0613 102.386 32.3855 102.935 33.7663 102.935H106.654C108.035 102.935 109.359 102.386 110.335 101.41C111.312 100.434 111.86 99.1095 111.86 97.7287V45.6662C111.86 44.2854 111.312 42.9612 110.335 41.9848C109.359 41.0085 108.035 40.46 106.654 40.46ZM102.645 97.7287H38.0875L56.3094 78.8821L52.5609 75.2637L33.7663 94.7091V49.623L66.1232 81.8236C67.0986 82.7933 68.4181 83.3376 69.7936 83.3376C71.169 83.3376 72.4885 82.7933 73.464 81.8236L106.654 48.816V94.3707L87.4948 75.2117L83.8244 78.8821L102.645 97.7287ZM37.1764 45.6662H102.437L69.7936 78.1272L37.1764 45.6662Z" fill="white"/>
</svg>
