<svg width="144" height="143" viewBox="0 0 144 143" fill="none" xmlns="http://www.w3.org/2000/svg">
<circle cx="71.8" cy="71.4" r="71.4" fill="#2890BD"/>
<path d="M102.069 35.7H41.8657C38.6824 35.7 36.1 38.2824 36.1 41.4656V101.669C36.1 104.852 38.6824 107.435 41.8657 107.435H102.069C105.252 107.435 107.835 104.852 107.835 101.669V41.4656C107.835 38.2824 105.252 35.7 102.069 35.7ZM102.069 101.696C61.9156 101.687 41.8388 101.678 41.8388 101.669C41.8477 61.5156 41.8567 41.4387 41.8657 41.4387C82.0193 41.4477 102.096 41.4567 102.096 41.4656C102.087 81.6193 102.078 101.696 102.069 101.696ZM46.7347 62.5916H57.3784V96.8271H46.7347V62.5916ZM52.061 57.9109C55.4594 57.9109 58.2302 55.1491 58.2302 51.7417C58.2302 50.9315 58.0706 50.1293 57.7606 49.3808C57.4506 48.6323 56.9962 47.9523 56.4233 47.3794C55.8504 46.8065 55.1703 46.3521 54.4219 46.0421C53.6734 45.732 52.8712 45.5725 52.061 45.5725C51.2509 45.5725 50.4486 45.732 49.7002 46.0421C48.9517 46.3521 48.2716 46.8065 47.6987 47.3794C47.1259 47.9523 46.6714 48.6323 46.3614 49.3808C46.0514 50.1293 45.8918 50.9315 45.8918 51.7417C45.8828 55.1491 48.6446 57.9109 52.061 57.9109ZM74.6844 79.8887C74.6844 75.4232 75.5363 71.1012 81.0688 71.1012C86.5207 71.1012 86.6014 76.2033 86.6014 80.1756V96.8271H97.2361V78.0505C97.2361 68.8325 95.2455 61.7397 84.4762 61.7397C79.3024 61.7397 75.8322 64.5822 74.4064 67.2723H74.263V62.5916H64.0497V96.8271H74.6844V79.8887Z" fill="white"/>
</svg>
