<svg width="143" height="143" viewBox="0 0 143 143" fill="none" xmlns="http://www.w3.org/2000/svg">
<circle cx="71.6" cy="71.4" r="71.4" fill="#2890BD"/>
<path fill-rule="evenodd" clip-rule="evenodd" d="M56.9802 35.9152C60.805 35.7391 62.0245 35.7 71.7674 35.7C81.5103 35.7 82.7298 35.7423 86.5513 35.9152C90.3728 36.088 92.9814 36.6977 95.2638 37.5814C97.6539 38.4846 99.8223 39.8964 101.616 41.7224C103.442 43.5125 104.85 45.6776 105.75 48.071C106.637 50.3534 107.244 52.962 107.42 56.777C107.596 60.6083 107.635 61.8278 107.635 71.5674C107.635 81.3103 107.592 82.5298 107.42 86.3546C107.247 90.1696 106.637 92.7782 105.75 95.0606C104.85 97.4543 103.439 99.623 101.616 101.416C99.8223 103.242 97.6539 104.65 95.2638 105.55C92.9814 106.437 90.3728 107.044 86.5578 107.22C82.7298 107.396 81.5103 107.435 71.7674 107.435C62.0245 107.435 60.805 107.393 56.9802 107.22C53.1652 107.047 50.5567 106.437 48.2742 105.55C45.8806 104.65 43.7119 103.239 41.9191 101.416C40.0944 99.6245 38.6823 97.4569 37.7813 95.0639C36.8977 92.7814 36.2912 90.1729 36.1151 86.3579C35.939 82.5266 35.8999 81.3071 35.8999 71.5674C35.8999 61.8245 35.9423 60.605 36.1151 56.7835C36.2879 52.962 36.8977 50.3534 37.7813 48.071C38.6836 45.6779 40.0968 43.5103 41.9224 41.7192C43.7126 39.8948 45.8791 38.4828 48.2709 37.5814C50.5534 36.6977 53.1652 36.0912 56.9802 35.9152ZM86.2611 42.3713C82.4787 42.1985 81.344 42.1626 71.7674 42.1626C62.1908 42.1626 61.056 42.1985 57.2737 42.3713C53.775 42.5311 51.8772 43.1147 50.6121 43.6071C48.9394 44.2592 47.7427 45.032 46.4873 46.2874C45.2973 47.4451 44.3815 48.8545 43.8071 50.4121C43.3147 51.6773 42.731 53.575 42.5713 57.0737C42.3984 60.8561 42.3626 61.9908 42.3626 71.5674C42.3626 81.1441 42.3984 82.2788 42.5713 86.0612C42.731 89.5599 43.3147 91.4576 43.8071 92.7227C44.3809 94.2781 45.2972 95.6899 46.4873 96.8475C47.6449 98.0376 49.0567 98.9539 50.6121 99.5278C51.8772 100.02 53.775 100.604 57.2737 100.764C61.056 100.936 62.1875 100.972 71.7674 100.972C81.3473 100.972 82.4787 100.936 86.2611 100.764C89.7598 100.604 91.6575 100.02 92.9227 99.5278C94.5954 98.8756 95.7921 98.1028 97.0474 96.8475C98.2376 95.6899 99.1538 94.2781 99.7277 92.7227C100.22 91.4576 100.804 89.5599 100.964 86.0612C101.136 82.2788 101.172 81.1441 101.172 71.5674C101.172 61.9908 101.136 60.8561 100.964 57.0737C100.804 53.575 100.22 51.6773 99.7277 50.4121C99.0756 48.7394 98.3028 47.5427 97.0474 46.2874C95.8897 45.0975 94.4803 44.1817 92.9227 43.6071C91.6575 43.1147 89.7598 42.5311 86.2611 42.3713ZM67.1861 82.6244C69.7447 83.6894 72.5936 83.8332 75.2463 83.0311C77.899 82.229 80.191 80.5308 81.7308 78.2265C83.2705 75.9223 83.9625 73.155 83.6886 70.3972C83.4147 67.6394 82.1918 65.0623 80.2289 63.106C78.9775 61.8554 77.4645 60.8979 75.7987 60.3023C74.1329 59.7066 72.3557 59.4878 70.5952 59.6614C68.8346 59.8351 67.1345 60.3969 65.6171 61.3065C64.0997 62.2161 62.8029 63.4508 61.82 64.9217C60.8371 66.3926 60.1926 68.0631 59.9328 69.8131C59.673 71.563 59.8044 73.3487 60.3176 75.0417C60.8308 76.7348 61.713 78.2929 62.9007 79.6041C64.0884 80.9153 65.552 81.9468 67.1861 82.6244ZM58.7312 58.5312C60.4431 56.8193 62.4755 55.4613 64.7122 54.5348C66.949 53.6083 69.3463 53.1315 71.7674 53.1315C74.1884 53.1315 76.5858 53.6083 78.8225 54.5348C81.0593 55.4613 83.0916 56.8193 84.8036 58.5312C86.5155 60.2432 87.8735 62.2755 88.8 64.5123C89.7265 66.749 90.2034 69.1464 90.2034 71.5674C90.2034 73.9885 89.7265 76.3858 88.8 78.6226C87.8735 80.8593 86.5155 82.8917 84.8036 84.6036C81.3462 88.061 76.6569 90.0034 71.7674 90.0034C66.8779 90.0034 62.1886 88.061 58.7312 84.6036C55.2738 81.1462 53.3314 76.457 53.3314 71.5674C53.3314 66.6779 55.2738 61.9886 58.7312 58.5312ZM94.2922 55.877C94.7164 55.4769 95.056 54.9956 95.2909 54.4618C95.5258 53.928 95.6512 53.3525 95.6597 52.7694C95.6683 52.1862 95.5597 51.6073 95.3404 51.0669C95.1212 50.5265 94.7957 50.0356 94.3833 49.6232C93.971 49.2108 93.48 48.8854 92.9396 48.6661C92.3992 48.4469 91.8203 48.3383 91.2371 48.3468C90.654 48.3553 90.0785 48.4807 89.5447 48.7156C89.0109 48.9505 88.5297 49.2901 88.1295 49.7144C87.3512 50.5394 86.9251 51.6353 86.9416 52.7694C86.9582 53.9035 87.416 54.9865 88.218 55.7885C89.02 56.5905 90.103 57.0484 91.2371 57.0649C92.3712 57.0814 93.4671 56.6553 94.2922 55.877Z" fill="white"/>
</svg>
