<svg width="86" height="86" viewBox="0 0 86 86" fill="none" xmlns="http://www.w3.org/2000/svg">
<circle cx="43" cy="43" r="43" fill="#D5ECF6"/>
<path fill-rule="evenodd" clip-rule="evenodd" d="M34.1954 21.6296C36.4989 21.5236 37.2333 21.5 43.1009 21.5C48.9684 21.5 49.7029 21.5255 52.0043 21.6296C54.3058 21.7337 55.8768 22.1009 57.2514 22.6331C58.6908 23.177 59.9967 24.0273 61.0767 25.127C62.1764 26.2051 63.0247 27.509 63.5667 28.9503C64.1008 30.3249 64.4661 31.8959 64.5721 34.1935C64.6782 36.5008 64.7017 37.2352 64.7017 43.1009C64.7017 48.9684 64.6762 49.7029 64.5721 52.0063C64.468 54.3039 64.1008 55.8748 63.5667 57.2494C63.0247 58.691 62.175 59.9971 61.0767 61.0767C59.9967 62.1764 58.6908 63.0247 57.2514 63.5667C55.8768 64.1008 54.3058 64.4661 52.0083 64.5721C49.7029 64.6782 48.9684 64.7017 43.1009 64.7017C37.2333 64.7017 36.4989 64.6762 34.1954 64.5721C31.8979 64.468 30.3269 64.1008 28.9523 63.5667C27.5108 63.0246 26.2047 62.1749 25.125 61.0767C24.0261 59.998 23.1757 58.6925 22.6331 57.2514C22.1009 55.8768 21.7356 54.3058 21.6296 52.0083C21.5236 49.7009 21.5 48.9665 21.5 43.1009C21.5 37.2333 21.5255 36.4989 21.6296 34.1974C21.7337 31.8959 22.1009 30.3249 22.6331 28.9503C23.1765 27.5091 24.0275 26.2037 25.127 25.125C26.2051 24.0263 27.5099 23.1759 28.9503 22.6331C30.3249 22.1009 31.8979 21.7356 34.1954 21.6296ZM51.8296 25.5178C49.5517 25.4137 48.8683 25.3921 43.1009 25.3921C37.3334 25.3921 36.6501 25.4137 34.3722 25.5178C32.2651 25.614 31.1222 25.9655 30.3603 26.262C29.3529 26.6548 28.6322 27.1202 27.8762 27.8762C27.1595 28.5734 26.608 29.4222 26.262 30.3603C25.9655 31.1222 25.614 32.2651 25.5178 34.3722C25.4137 36.6501 25.3921 37.3334 25.3921 43.1009C25.3921 48.8683 25.4137 49.5517 25.5178 51.8296C25.614 53.9366 25.9655 55.0795 26.262 55.8414C26.6076 56.7781 27.1594 57.6284 27.8762 58.3255C28.5733 59.0423 29.4236 59.5941 30.3603 59.9397C31.1222 60.2362 32.2651 60.5877 34.3722 60.684C36.6501 60.788 37.3315 60.8096 43.1009 60.8096C48.8703 60.8096 49.5517 60.788 51.8296 60.684C53.9366 60.5877 55.0795 60.2362 55.8414 59.9397C56.8488 59.547 57.5695 59.0816 58.3255 58.3255C59.0423 57.6284 59.5941 56.7781 59.9397 55.8414C60.2362 55.0795 60.5877 53.9366 60.684 51.8296C60.788 49.5517 60.8096 48.8683 60.8096 43.1009C60.8096 37.3334 60.788 36.6501 60.684 34.3722C60.5877 32.2651 60.2362 31.1222 59.9397 30.3603C59.547 29.3529 59.0816 28.6322 58.3255 27.8762C57.6283 27.1596 56.7795 26.608 55.8414 26.262C55.0795 25.9655 53.9366 25.614 51.8296 25.5178ZM40.3418 49.7598C41.8827 50.4012 43.5984 50.4878 45.196 50.0047C46.7936 49.5217 48.1739 48.499 49.1012 47.1112C50.0285 45.7235 50.4453 44.0569 50.2803 42.3961C50.1153 40.7353 49.3789 39.1832 48.1967 38.005C47.4431 37.2519 46.5319 36.6752 45.5287 36.3165C44.5254 35.9578 43.4552 35.826 42.3949 35.9306C41.3346 36.0352 40.3107 36.3735 39.3969 36.9213C38.4831 37.4691 37.7021 38.2127 37.1102 39.0985C36.5182 39.9844 36.13 40.9904 35.9736 42.0443C35.8171 43.0982 35.8963 44.1736 36.2054 45.1932C36.5144 46.2128 37.0457 47.1512 37.761 47.9409C38.4762 48.7305 39.3577 49.3517 40.3418 49.7598ZM35.2499 35.2499C36.2809 34.2189 37.5049 33.4011 38.852 32.8431C40.199 32.2852 41.6428 31.998 43.1009 31.998C44.5589 31.998 46.0027 32.2852 47.3498 32.8431C48.6968 33.4011 49.9208 34.2189 50.9518 35.2499C51.9828 36.2809 52.8006 37.5049 53.3586 38.852C53.9166 40.199 54.2038 41.6428 54.2038 43.1009C54.2038 44.5589 53.9166 46.0027 53.3586 47.3498C52.8006 48.6968 51.9828 49.9208 50.9518 50.9518C48.8696 53.034 46.0455 54.2038 43.1009 54.2038C40.1562 54.2038 37.3321 53.034 35.2499 50.9518C33.1677 48.8696 31.998 46.0455 31.998 43.1009C31.998 40.1562 33.1677 37.3321 35.2499 35.2499ZM56.6662 33.6515C56.9217 33.4105 57.1262 33.1206 57.2677 32.7992C57.4092 32.4777 57.4847 32.1311 57.4898 31.7799C57.4949 31.4287 57.4295 31.0801 57.2975 30.7546C57.1655 30.4292 56.9695 30.1335 56.7211 29.8851C56.4728 29.6368 56.1771 29.4408 55.8516 29.3087C55.5262 29.1767 55.1775 29.1113 54.8263 29.1164C54.4752 29.1216 54.1286 29.1971 53.8071 29.3386C53.4856 29.48 53.1958 29.6846 52.9548 29.94C52.4861 30.4369 52.2295 31.0969 52.2394 31.7799C52.2494 32.4629 52.5251 33.1151 53.0081 33.5981C53.4911 34.0811 54.1433 34.3569 54.8263 34.3668C55.5093 34.3768 56.1693 34.1202 56.6662 33.6515Z" fill="black"/>
</svg>
