<svg width="32" height="29" viewBox="0 0 23 25" fill="none" xmlns="http://www.w3.org/2000/svg">
<path d="M0.419299 0.970959H2.09872V16.0857C2.09872 16.7278 2.21397 17.1477 2.44448 17.3453C2.67499 17.5429 2.95489 17.6416 3.28419 17.6416C3.58056 17.6416 3.87692 17.6087 4.17329 17.5429C4.46966 17.477 4.72486 17.4111 4.93891 17.3453L5.23528 18.7036C4.92244 18.8354 4.53552 18.9424 4.0745 19.0247C3.62995 19.107 3.24303 19.1482 2.91373 19.1482C2.15634 19.1482 1.54714 18.9259 1.08613 18.4814C0.641575 18.0368 0.419299 17.4276 0.419299 16.6538V0.970959ZM13.6437 19.247C12.5735 19.247 11.6103 18.9671 10.7542 18.4073C9.91445 17.8475 9.24762 17.1559 8.75368 16.3327V24.2605H7.07426V6.1327H8.5808V8.62713C9.09121 7.82035 9.7745 7.16999 10.6307 6.67604C11.4868 6.16563 12.4006 5.91042 13.3721 5.91042C14.2612 5.91042 15.0762 6.09977 15.8171 6.47846C16.558 6.84069 17.2002 7.33463 17.7435 7.9603C18.2868 8.58597 18.7067 9.30219 19.0031 10.109C19.3159 10.8993 19.4723 11.7225 19.4723 12.5787C19.4723 13.7806 19.2253 14.892 18.7314 15.9128C18.2539 16.9172 17.5789 17.724 16.7062 18.3332C15.8336 18.9424 14.8128 19.247 13.6437 19.247ZM13.1745 17.7651C13.8825 17.7651 14.5164 17.6252 15.0762 17.3453C15.636 17.0489 16.1135 16.6538 16.5086 16.1598C16.9203 15.6659 17.2331 15.1143 17.4471 14.5051C17.6612 13.8794 17.7682 13.2373 17.7682 12.5787C17.7682 11.8872 17.6447 11.2286 17.3977 10.6029C17.1672 9.97725 16.8297 9.42567 16.3851 8.94819C15.9406 8.47071 15.4302 8.09202 14.8539 7.81212C14.2776 7.53221 13.652 7.39226 12.9769 7.39226C12.5488 7.39226 12.1043 7.47459 11.6433 7.63923C11.1822 7.80388 10.7377 8.04262 10.3096 8.35546C9.89799 8.65182 9.55222 8.98935 9.27232 9.36805C8.99242 9.74674 8.81954 10.1501 8.75368 10.5782V14.5298C9.01712 15.139 9.37111 15.6906 9.81566 16.1845C10.2602 16.662 10.7706 17.0489 11.3469 17.3453C11.9396 17.6252 12.5488 17.7651 13.1745 17.7651Z" fill="black"/>
<path d="M19.7316 17.8182C19.7316 17.4403 19.8482 17.1228 20.0814 16.8655C20.3225 16.6002 20.6682 16.4676 21.1184 16.4676C21.5687 16.4676 21.9103 16.6002 22.1435 16.8655C22.3847 17.1228 22.5053 17.4403 22.5053 17.8182C22.5053 18.188 22.3847 18.5016 22.1435 18.7588C21.9103 19.0161 21.5687 19.1447 21.1184 19.1447C20.6682 19.1447 20.3225 19.0161 20.0814 18.7588C19.8482 18.5016 19.7316 18.188 19.7316 17.8182Z" fill="black"/>
</svg>
