<svg width="125" height="125" viewBox="0 0 125 125" fill="none" xmlns="http://www.w3.org/2000/svg">
<rect y="0.105103" width="124.562" height="124.562" rx="10.9303" fill="#D5ECF6"/>
<path d="M62.2782 101.289C61.1647 101.289 60.1255 100.992 59.1604 100.472L49.2868 94.6074C47.8022 93.7908 48.5445 93.4939 48.9899 93.3454C50.9942 92.6773 51.3654 92.5288 53.4439 91.3408C53.6669 91.1923 53.9638 91.2666 54.1862 91.415L61.7586 95.9436C62.0555 96.092 62.4267 96.092 62.6494 95.9436L92.2699 78.7951C92.5669 78.6466 92.7153 78.3497 92.7153 77.9785V43.7553C92.7153 43.3841 92.5669 43.0872 92.2699 42.9387L62.6494 25.8642C62.3525 25.7157 61.9813 25.7157 61.7586 25.8642L32.1381 42.939C31.8412 43.0874 31.6927 43.4586 31.6927 43.7555V77.9785C31.6927 78.2755 31.8412 78.6466 32.1381 78.7951L40.2301 83.4718C44.6101 85.6988 47.3565 83.1006 47.3565 80.5025V46.7246C47.3565 46.2792 47.7279 45.8338 48.2476 45.8338H52.0338C52.4792 45.8338 52.9246 46.205 52.9246 46.7246V80.5022C52.9246 86.3669 49.7322 89.7816 44.1645 89.7816C42.4571 89.7816 41.1209 89.7816 37.335 87.9258L29.5399 83.4718C27.6099 82.358 26.4221 80.2795 26.4221 78.0525V43.8298C26.4221 41.6028 27.6099 39.5242 29.5399 38.4105L59.1604 21.262C61.0163 20.2227 63.5402 20.2227 65.396 21.262L95.0166 38.4105C96.9466 39.524 98.1344 41.6025 98.1344 43.8298V78.0528C98.1344 80.2798 96.9466 82.3583 95.0166 83.4718L65.396 100.621C64.431 101.066 63.3175 101.289 62.2782 101.289V101.289ZM71.4092 77.7555C58.4178 77.7555 55.7454 71.8169 55.7454 66.7687C55.7454 66.3233 56.1166 65.8779 56.6362 65.8779H60.4964C60.9418 65.8779 61.3132 66.1749 61.3132 66.6203C61.9071 70.5546 63.6144 72.485 71.4835 72.485C77.7193 72.485 80.392 71.0745 80.392 67.734C80.392 65.8037 79.6497 64.3933 69.9246 63.4279C61.8328 62.6114 56.7847 60.8298 56.7847 54.3715C56.7847 48.358 61.8326 44.7948 70.2957 44.7948C79.7979 44.7948 84.4749 48.0611 85.0687 55.1878C85.0687 55.4105 84.9945 55.6332 84.846 55.8559C84.6976 56.0043 84.4749 56.1528 84.2522 56.1528H80.392C80.0206 56.1528 79.6497 55.8559 79.5752 55.4847C78.6844 51.4019 76.3831 50.0657 70.2957 50.0657C63.4663 50.0657 62.6494 52.4411 62.6494 54.2227C62.6494 56.3758 63.6144 57.0436 72.8197 58.2313C81.9509 59.4191 86.2565 61.1267 86.2565 67.5111C86.1822 74.0439 80.8374 77.7555 71.4092 77.7555V77.7555Z" fill="#539E43"/>
</svg>
