<svg width="125" height="125" viewBox="0 0 125 125" fill="none" xmlns="http://www.w3.org/2000/svg">
<rect x="0.438232" width="124.562" height="124.562" rx="10.9303" fill="#D5ECF6"/>
<path d="M62.156 69.775C66.634 69.775 70.2642 66.1448 70.2642 61.6668C70.2642 57.1888 66.634 53.5587 62.156 53.5587C57.678 53.5587 54.0479 57.1888 54.0479 61.6668C54.0479 66.1448 57.678 69.775 62.156 69.775Z" fill="#2890BD"/>
<path d="M62.1557 80.2572C52.4101 80.4929 42.689 79.1792 33.3555 76.3652C29.044 74.9985 25.0227 72.8455 21.4949 70.0149C20.1487 69.048 19.0277 67.8012 18.2086 66.3602C17.3896 64.9193 16.892 63.3182 16.75 61.6668C16.75 56.3057 22.6398 51.0516 32.5058 47.6137C42.0888 44.5675 52.1013 43.0911 62.1557 43.2418C72.0759 43.1032 81.9543 44.5529 91.4164 47.5359C95.5687 48.8596 99.4537 50.9086 102.891 53.5878C104.214 54.5097 105.319 55.7112 106.126 57.1074C106.933 58.5035 107.423 60.0601 107.561 61.6668C107.561 67.2387 100.978 72.8852 90.3721 76.3944C81.2194 79.1167 71.7033 80.4195 62.1557 80.2572V80.2572ZM62.1557 47.1207C52.5365 46.9922 42.9582 48.3957 33.7804 51.2786C24.6992 54.4473 20.6289 58.7803 20.6289 61.657C20.6289 64.6668 25.0041 69.3987 34.6107 72.6841C43.5396 75.3626 52.8365 76.6094 62.1557 76.3782C71.29 76.5416 80.3956 75.3056 89.1559 72.7133C99.1289 69.4084 103.669 64.67 103.669 61.6668C103.506 60.6362 103.13 59.6507 102.566 58.7726C102.003 57.8945 101.263 57.1428 100.394 56.5651C97.3183 54.1883 93.8479 52.3724 90.1418 51.2008C81.09 48.3589 71.6422 46.9815 62.1557 47.1207V47.1207Z" fill="#2890BD"/>
<path d="M43.734 102.107C42.221 102.142 40.7258 101.775 39.401 101.043C34.7566 98.3643 33.1479 90.6388 35.0971 80.3739C37.2463 70.5503 40.9701 61.1391 46.1242 52.5045C50.9591 43.8421 57.1487 36.009 64.4584 29.3022C67.6795 26.3661 71.3953 24.0239 75.4336 22.3843C76.8942 21.6998 78.4876 21.345 80.1007 21.345C81.7138 21.345 83.3071 21.6998 84.7677 22.3843C89.5969 25.1671 91.1959 33.6904 88.9418 44.6299C86.7263 53.9204 83.0993 62.8163 78.1871 71.0073C73.5225 79.5675 67.5277 87.3324 60.427 94.0118C57.089 97.063 53.2151 99.4701 49.001 101.111C47.3139 101.737 45.5332 102.074 43.734 102.107V102.107ZM49.4843 54.431C44.5678 62.6992 40.9988 71.6972 38.9112 81.0874C37.1177 90.5415 38.8399 96.227 41.3437 97.6735C43.9383 99.1751 50.2367 97.7513 57.8843 91.0702C64.6628 84.671 70.3846 77.2383 74.8368 69.0484C79.5426 61.2176 83.0219 52.7126 85.1537 43.8288C87.2748 33.5314 85.4423 27.2265 82.8412 25.7281C81.8663 25.3546 80.8246 25.1874 79.7817 25.2371C78.7389 25.2868 77.7178 25.5523 76.7828 26.0168C73.1882 27.5001 69.8835 29.6059 67.0206 32.2374C60.0368 38.6616 54.1244 46.1605 49.507 54.4505L49.4843 54.431Z" fill="#2890BD"/>
<path d="M80.5675 102.149C76.1729 102.149 70.5912 99.4898 64.7793 94.4919C57.3415 87.7241 51.0473 79.7979 46.1403 71.0204C41.0507 62.5047 37.3564 53.2296 35.1975 43.5467C34.2612 39.2866 34.0877 34.8943 34.6851 30.5736C34.8232 28.9708 35.3112 27.4179 36.1148 26.0242C36.9184 24.6305 38.0179 23.4301 39.3359 22.5076C44.1586 19.7152 52.3414 22.5855 60.6928 29.9996C67.6353 36.5581 73.5309 44.1425 78.174 52.4884C83.2604 60.8052 86.9934 69.8772 89.2335 79.3653C90.2101 83.7817 90.3608 88.3407 89.6778 92.8119C89.5154 94.4608 88.9982 96.055 88.1619 97.4853C87.3255 98.9157 86.1897 100.148 84.8324 101.098C83.5291 101.821 82.0572 102.183 80.5675 102.149V102.149ZM49.497 69.0679C54.2044 77.4564 60.217 85.0422 67.309 91.5405C74.6031 97.8162 80.3891 99.1654 82.8767 97.7027C85.4713 96.1946 87.3848 90.0389 85.4129 80.0788C83.2525 71.0202 79.672 62.3606 74.8042 54.4214C70.3734 46.4336 64.746 39.1711 58.1176 32.8861C50.256 25.9066 43.8797 24.3466 41.2819 25.8515C40.4722 26.5095 39.8077 27.3282 39.3304 28.256C38.8531 29.1837 38.5734 30.2004 38.5089 31.2418C37.9932 35.095 38.1612 39.0091 39.0051 42.804C41.0818 52.064 44.6248 60.9326 49.5003 69.0744L49.497 69.0679Z" fill="#2890BD"/>
</svg>
